<?xml version="1.0" encoding="UTF-8"?>
<svg width="240px" height="19px" viewBox="0 0 240 19" version="1.1" xmlns="http://www.w3.org/2000/svg" xmlns:xlink="http://www.w3.org/1999/xlink">
    <!-- Generator: Sketch 48.2 (47327) - http://www.bohemiancoding.com/sketch -->
    <title>THIS WAS MY WEEK</title>
    <desc>Created with Sketch.</desc>
    <defs></defs>
    <g id="Page-1" stroke="none" stroke-width="1" fill="none" fill-rule="evenodd" fill-opacity="0.983780571">
        <path d="M14.3,0.325 L14.3,3.725 L9.5,3.725 L9.5,18 L5.2,18 L5.2,3.725 L0.45,3.725 L0.45,0.325 L14.3,0.325 Z M31.375,0.325 L31.375,18 L27.075,18 L27.075,10.625 L20.375,10.625 L20.375,18 L16.1,18 L16.1,0.325 L20.375,0.325 L20.375,7.175 L27.075,7.175 L27.075,0.325 L31.375,0.325 Z M38.6,0.325 L38.6,18 L34.325,18 L34.325,0.325 L38.6,0.325 Z M54.25,13.025 C54.25,13.958338 54.0125024,14.8166628 53.5375,15.6 C53.0624976,16.3833373 52.3625046,17.008331 51.4375,17.475 C50.5124954,17.941669 49.3916732,18.175 48.075,18.175 C46.0916567,18.175 44.4583397,17.6916715 43.175,16.725 C41.8916602,15.7583285 41.1916673,14.408342 41.075,12.675 L45.625,12.675 C45.691667,13.34167 45.9291646,13.8666647 46.3375,14.25 C46.7458354,14.6333353 47.2666635,14.825 47.9,14.825 C48.4500028,14.825 48.8833318,14.6750015 49.2,14.375 C49.5166682,14.0749985 49.675,13.6750025 49.675,13.175 C49.675,12.7249977 49.5291681,12.3500015 49.2375,12.05 C48.9458319,11.7499985 48.5833355,11.5041676 48.15,11.3125 C47.7166645,11.1208324 47.1166705,10.891668 46.35,10.625 C45.2333278,10.2416647 44.3208369,9.87083512 43.6125,9.5125 C42.9041631,9.15416487 42.2958359,8.62083688 41.7875,7.9125 C41.2791641,7.20416313 41.025,6.283339 41.025,5.15 C41.025,4.09999475 41.291664,3.1916705 41.825,2.425 C42.358336,1.6583295 43.0958286,1.07083538 44.0375,0.6625 C44.9791714,0.254164625 46.0583272,0.05 47.275,0.05 C49.2416765,0.05 50.8041609,0.516662 51.9625,1.45 C53.1208391,2.383338 53.7749992,3.6666585 53.925,5.3 L49.3,5.3 C49.2166663,4.71666375 49.0041684,4.25416838 48.6625,3.9125 C48.3208316,3.57083162 47.8583362,3.4 47.275,3.4 C46.7749975,3.4 46.3708349,3.533332 46.0625,3.8 C45.7541651,4.066668 45.6,4.45833075 45.6,4.975 C45.6,5.39166875 45.7374986,5.74583187 46.0125,6.0375 C46.2875014,6.32916812 46.6333312,6.56666575 47.05,6.75 C47.4666687,6.93333425 48.0666627,7.16666525 48.85,7.45 C49.983339,7.83333525 50.9083298,8.21249812 51.625,8.5875 C52.3416702,8.96250187 52.9583307,9.50832975 53.475,10.225 C53.9916692,10.9416703 54.25,11.8749942 54.25,13.025 Z M85.65,0.325 L81.425,18 L76.125,18 L73.3,6.175 L70.45,18 L65.15,18 L60.925,0.325 L65.575,0.325 L67.85,13.125 L70.95,0.325 L75.625,0.325 L78.725,13.125 L81.025,0.325 L85.65,0.325 Z M98.85,14.775 L92.225,14.775 L91.125,18 L86.625,18 L93.1,0.45 L98.025,0.45 L104.5,18 L99.95,18 L98.85,14.775 Z M97.75,11.525 L95.55,5.025 L93.325,11.525 L97.75,11.525 Z M118.85,13.025 C118.85,13.958338 118.612502,14.8166628 118.1375,15.6 C117.662498,16.3833373 116.962505,17.008331 116.0375,17.475 C115.112495,17.941669 113.991673,18.175 112.675,18.175 C110.691657,18.175 109.05834,17.6916715 107.775,16.725 C106.49166,15.7583285 105.791667,14.408342 105.675,12.675 L110.225,12.675 C110.291667,13.34167 110.529165,13.8666647 110.9375,14.25 C111.345835,14.6333353 111.866663,14.825 112.5,14.825 C113.050003,14.825 113.483332,14.6750015 113.8,14.375 C114.116668,14.0749985 114.275,13.6750025 114.275,13.175 C114.275,12.7249977 114.129168,12.3500015 113.8375,12.05 C113.545832,11.7499985 113.183335,11.5041676 112.75,11.3125 C112.316664,11.1208324 111.71667,10.891668 110.95,10.625 C109.833328,10.2416647 108.920837,9.87083512 108.2125,9.5125 C107.504163,9.15416487 106.895836,8.62083688 106.3875,7.9125 C105.879164,7.20416313 105.625,6.283339 105.625,5.15 C105.625,4.09999475 105.891664,3.1916705 106.425,2.425 C106.958336,1.6583295 107.695829,1.07083538 108.6375,0.6625 C109.579171,0.254164625 110.658327,0.05 111.875,0.05 C113.841676,0.05 115.404161,0.516662 116.5625,1.45 C117.720839,2.383338 118.374999,3.6666585 118.525,5.3 L113.9,5.3 C113.816666,4.71666375 113.604168,4.25416838 113.2625,3.9125 C112.920832,3.57083162 112.458336,3.4 111.875,3.4 C111.374997,3.4 110.970835,3.533332 110.6625,3.8 C110.354165,4.066668 110.2,4.45833075 110.2,4.975 C110.2,5.39166875 110.337499,5.74583187 110.6125,6.0375 C110.887501,6.32916812 111.233331,6.56666575 111.65,6.75 C112.066669,6.93333425 112.666663,7.16666525 113.45,7.45 C114.583339,7.83333525 115.50833,8.21249812 116.225,8.5875 C116.94167,8.96250187 117.558331,9.50832975 118.075,10.225 C118.591669,10.9416703 118.85,11.8749942 118.85,13.025 Z M146.1,0.45 L146.1,18 L141.825,18 L141.825,7.025 L138.025,18 L134.325,18 L130.5,7 L130.5,18 L126.225,18 L126.225,0.45 L131.45,0.45 L136.225,12.675 L140.9,0.45 L146.1,0.45 Z M164.325,0.325 L158.2,12.125 L158.2,18 L153.9,18 L153.9,12.125 L147.775,0.325 L152.675,0.325 L156.075,7.525 L159.475,0.325 L164.325,0.325 Z M195,0.325 L190.775,18 L185.475,18 L182.65,6.175 L179.8,18 L174.5,18 L170.275,0.325 L174.925,0.325 L177.2,13.125 L180.3,0.325 L184.975,0.325 L188.075,13.125 L190.375,0.325 L195,0.325 Z M201.525,3.725 L201.525,7.425 L207.5,7.425 L207.5,10.65 L201.525,10.65 L201.525,14.575 L208.25,14.575 L208.25,18 L197.25,18 L197.25,0.325 L208.25,0.325 L208.25,3.725 L201.525,3.725 Z M214.95,3.725 L214.95,7.425 L220.925,7.425 L220.925,10.65 L214.95,10.65 L214.95,14.575 L221.675,14.575 L221.675,18 L210.675,18 L210.675,0.325 L221.675,0.325 L221.675,3.725 L214.95,3.725 Z M232.425,8.975 L239.55,18 L234.375,18 L228.375,10.075 L228.375,18 L224.1,18 L224.1,0.325 L228.375,0.325 L228.375,8.1 L234.425,0.325 L239.55,0.325 L232.425,8.975 Z" id="THIS-WAS-MY-WEEK" fill="#000000"></path>
    </g>
</svg>