<?xml version="1.0" encoding="UTF-8"?>
<svg width="173px" height="19px" viewBox="0 0 173 19" version="1.1" xmlns="http://www.w3.org/2000/svg" xmlns:xlink="http://www.w3.org/1999/xlink">
    <!-- Generator: Sketch 48.2 (47327) - http://www.bohemiancoding.com/sketch -->
    <title>HEY IM BOBBY</title>
    <desc>Created with Sketch.</desc>
    <defs></defs>
    <g id="Page-1" stroke="none" stroke-width="1" fill="none" fill-rule="evenodd" fill-opacity="0.983780571">
        <path d="M15.625,0.325 L15.625,18 L11.325,18 L11.325,10.625 L4.625,10.625 L4.625,18 L0.35,18 L0.35,0.325 L4.625,0.325 L4.625,7.175 L11.325,7.175 L11.325,0.325 L15.625,0.325 Z M22.85,3.725 L22.85,7.425 L28.825,7.425 L28.825,10.65 L22.85,10.65 L22.85,14.575 L29.575,14.575 L29.575,18 L18.575,18 L18.575,0.325 L29.575,0.325 L29.575,3.725 L22.85,3.725 Z M47.275,0.325 L41.15,12.125 L41.15,18 L36.85,18 L36.85,12.125 L30.725,0.325 L35.625,0.325 L39.025,7.525 L42.425,0.325 L47.275,0.325 Z M58.2,0.325 L58.2,18 L53.925,18 L53.925,0.325 L58.2,0.325 Z M81.025,0.45 L81.025,18 L76.75,18 L76.75,7.025 L72.95,18 L69.25,18 L65.425,7 L65.425,18 L61.15,18 L61.15,0.45 L66.375,0.45 L71.15,12.675 L75.825,0.45 L81.025,0.45 Z M99.575,8.9 C100.641672,9.15000125 101.487497,9.66666275 102.1125,10.45 C102.737503,11.2333373 103.05,12.1416615 103.05,13.175 C103.05,14.6916743 102.545838,15.8749957 101.5375,16.725 C100.529162,17.5750043 99.0833427,18 97.2,18 L88.975,18 L88.975,0.325 L97,0.325 C98.800009,0.325 100.191662,0.71666275 101.175,1.5 C102.158338,2.28333725 102.65,3.39999275 102.65,4.85 C102.65,5.916672 102.366669,6.80416313 101.8,7.5125 C101.23333,8.22083688 100.491671,8.68333225 99.575,8.9 Z M93.25,7.55 L96.05,7.55 C97.5333407,7.55 98.275,6.916673 98.275,5.65 C98.275,4.383327 97.5166742,3.75 96,3.75 L93.25,3.75 L93.25,7.55 Z M96.3,14.525 C97.8833413,14.525 98.675,13.8750065 98.675,12.575 C98.675,11.9416635 98.4666687,11.4458351 98.05,11.0875 C97.6333312,10.7291649 97.0416705,10.55 96.275,10.55 L93.25,10.55 L93.25,14.525 L96.3,14.525 Z M113.7,0.05 C115.366675,0.05 116.87916,0.437496125 118.2375,1.2125 C119.59584,1.98750388 120.666663,3.06249313 121.45,4.4375 C122.233337,5.81250687 122.625,7.366658 122.625,9.1 C122.625,10.833342 122.229171,12.3916598 121.4375,13.775 C120.645829,15.1583402 119.57084,16.2374961 118.2125,17.0125 C116.85416,17.7875039 115.350008,18.175 113.7,18.175 C112.049992,18.175 110.54584,17.7875039 109.1875,17.0125 C107.82916,16.2374961 106.754171,15.1583402 105.9625,13.775 C105.170829,12.3916598 104.775,10.833342 104.775,9.1 C104.775,7.366658 105.170829,5.81250687 105.9625,4.4375 C106.754171,3.06249313 107.82916,1.98750388 109.1875,1.2125 C110.54584,0.437496125 112.049992,0.05 113.7,0.05 Z M113.7,4.025 C112.299993,4.025 111.187504,4.47916213 110.3625,5.3875 C109.537496,6.29583788 109.125,7.5333255 109.125,9.1 C109.125,10.6500077 109.537496,11.8833288 110.3625,12.8 C111.187504,13.7166712 112.299993,14.175 113.7,14.175 C115.08334,14.175 116.191662,13.7166712 117.025,12.8 C117.858337,11.8833288 118.275,10.6500077 118.275,9.1 C118.275,7.54999225 117.862504,6.31667125 117.0375,5.4 C116.212496,4.48332875 115.100007,4.025 113.7,4.025 Z M135.625,8.9 C136.691672,9.15000125 137.537497,9.66666275 138.1625,10.45 C138.787503,11.2333373 139.1,12.1416615 139.1,13.175 C139.1,14.6916743 138.595838,15.8749957 137.5875,16.725 C136.579162,17.5750043 135.133343,18 133.25,18 L125.025,18 L125.025,0.325 L133.05,0.325 C134.850009,0.325 136.241662,0.71666275 137.225,1.5 C138.208338,2.28333725 138.7,3.39999275 138.7,4.85 C138.7,5.916672 138.41667,6.80416313 137.85,7.5125 C137.28333,8.22083688 136.541671,8.68333225 135.625,8.9 Z M129.3,7.55 L132.1,7.55 C133.583341,7.55 134.325,6.916673 134.325,5.65 C134.325,4.383327 133.566674,3.75 132.05,3.75 L129.3,3.75 L129.3,7.55 Z M132.35,14.525 C133.933341,14.525 134.725,13.8750065 134.725,12.575 C134.725,11.9416635 134.516669,11.4458351 134.1,11.0875 C133.683331,10.7291649 133.09167,10.55 132.325,10.55 L129.3,10.55 L129.3,14.525 L132.35,14.525 Z M151.95,8.9 C153.016672,9.15000125 153.862497,9.66666275 154.4875,10.45 C155.112503,11.2333373 155.425,12.1416615 155.425,13.175 C155.425,14.6916743 154.920838,15.8749957 153.9125,16.725 C152.904162,17.5750043 151.458343,18 149.575,18 L141.35,18 L141.35,0.325 L149.375,0.325 C151.175009,0.325 152.566662,0.71666275 153.55,1.5 C154.533338,2.28333725 155.025,3.39999275 155.025,4.85 C155.025,5.916672 154.741669,6.80416313 154.175,7.5125 C153.60833,8.22083688 152.866671,8.68333225 151.95,8.9 Z M145.625,7.55 L148.425,7.55 C149.908341,7.55 150.65,6.916673 150.65,5.65 C150.65,4.383327 149.891674,3.75 148.375,3.75 L145.625,3.75 L145.625,7.55 Z M148.675,14.525 C150.258341,14.525 151.05,13.8750065 151.05,12.575 C151.05,11.9416635 150.841669,11.4458351 150.425,11.0875 C150.008331,10.7291649 149.41667,10.55 148.65,10.55 L145.625,10.55 L145.625,14.525 L148.675,14.525 Z M172.95,0.325 L166.825,12.125 L166.825,18 L162.525,18 L162.525,12.125 L156.4,0.325 L161.3,0.325 L164.7,7.525 L168.1,0.325 L172.95,0.325 Z" id="HEY-IM-BOBBY" fill="#000000"></path>
    </g>
</svg>