<svg xmlns="http://www.w3.org/2000/svg" xmlns:xlink="http://www.w3.org/1999/xlink" xml:space="preserve" version="1.1" style="shape-rendering:geometricPrecision;text-rendering:geometricPrecision;image-rendering:optimizeQuality;" viewBox="0 0 847 1058.75" x="0px" y="0px" fill-rule="evenodd" clip-rule="evenodd"><defs><style type="text/css">
   
    .fil0 {fill:black}
   
  </style></defs><g><path class="fil0" d="M423 7c35,0 66,38 86,98 46,-42 92,-60 123,-42 30,17 37,66 24,127 62,-13 111,-5 128,25 18,30 0,76 -42,123 59,20 98,50 98,85 0,35 -39,66 -98,86 42,46 60,92 42,123 -17,30 -66,37 -128,24 13,62 6,111 -24,128 -31,18 -77,0 -123,-42 -20,59 -51,98 -86,98 -35,0 -65,-39 -85,-98 -47,42 -93,60 -123,42 -30,-17 -38,-66 -25,-128 -61,13 -110,6 -127,-24 -18,-31 0,-77 42,-123 -60,-20 -98,-51 -98,-86 0,-35 38,-65 98,-85 -42,-47 -60,-93 -42,-123 17,-30 66,-38 127,-25 -13,-61 -5,-110 25,-127 30,-18 76,0 123,42 20,-60 50,-98 85,-98zm89 109c10,36 17,78 18,123 40,-22 79,-37 115,-46 14,-59 8,-105 -19,-121 -27,-16 -70,3 -114,44zm142 86c-9,36 -24,75 -46,115 45,1 87,7 122,18 42,-44 60,-87 44,-114 -15,-28 -62,-33 -120,-19zm-52 126c-1,0 -1,1 -1,2 -12,20 -24,39 -37,56 19,8 40,18 60,30l2 1c38,-23 71,-48 96,-74 -35,-9 -76,-15 -120,-15zm-45 67c-8,10 -16,19 -25,28 9,9 17,19 25,29 19,-8 38,-18 58,-29 -20,-11 -39,-20 -58,-28zm-32 36c-5,6 -10,11 -16,15 2,7 4,14 6,21 10,-3 21,-6 31,-11 -7,-9 -14,-17 -21,-25zm-24 23c-4,3 -7,6 -10,8 -1,4 -2,9 -2,13 5,-1 10,-3 16,-4 -1,-6 -3,-12 -4,-17zm-97 43c-1,0 -1,-1 -1,-1l1 1 1 0 -1 0zm-34 -19c0,-1 0,-1 0,-1l-1 -1 0 1 1 1zm-14 -93c1,-5 1,-9 2,-13 -5,1 -11,2 -16,4 1,6 2,11 4,17 3,-3 7,-6 10,-8zm4 -25c2,-7 4,-14 6,-21 -11,-2 -21,-4 -33,-6 2,12 4,22 6,33 7,-2 14,-4 21,-6zm9 -31c3,-12 8,-24 12,-36 -16,-12 -34,-24 -53,-35 0,22 1,44 4,64 13,2 25,4 37,7zm17 -46c8,-20 18,-40 30,-60 0,-1 0,-1 1,-2 -23,-38 -48,-71 -74,-96 -9,34 -15,76 -15,120l2 1c20,12 39,24 56,37zm37 -73c24,-38 50,-71 77,-97 -17,-58 -45,-95 -77,-95 -31,0 -59,37 -76,95 26,26 53,59 76,97zm219 -5c-9,34 -25,73 -47,112l-2 0c-23,0 -46,1 -67,4 3,-22 4,-44 4,-67 0,-1 0,-2 0,-3 39,-21 77,-37 112,-46zm-53 123c-11,19 -23,37 -36,53 -12,-4 -24,-9 -35,-12 3,-12 5,-24 7,-37 20,-3 42,-4 64,-4zm-43 62c-7,9 -14,18 -21,26 -5,-6 -10,-11 -16,-16 2,-6 4,-13 6,-21 10,3 21,7 31,11zm-28 33c-4,5 -8,9 -12,12 -2,-4 -3,-8 -5,-12 2,-4 3,-8 5,-12 4,4 8,8 12,12zm-21 20l-1 1 1 -1 0 -1 0 1zm-44 32c-5,2 -10,4 -14,6 -5,1 -10,1 -16,1 -5,0 -10,0 -15,-1 -5,-2 -9,-4 -14,-6 -5,-3 -9,-6 -13,-10 -3,-3 -6,-8 -9,-12 -2,-5 -5,-10 -6,-14 -1,-5 -2,-10 -2,-16 0,-5 1,-10 2,-15 1,-5 4,-9 6,-14 3,-5 6,-9 9,-13 4,-3 8,-6 13,-9 5,-2 9,-5 14,-6 5,-1 10,-2 15,-2 6,0 11,1 16,2 4,1 9,4 14,6 4,3 9,6 12,9 4,4 7,8 10,13 2,5 4,9 6,14 1,5 1,10 1,15 0,6 0,11 -1,16 -2,4 -4,9 -6,14 -3,4 -6,9 -9,12 -4,4 -9,7 -13,10zm-84 -105l0 -1 1 0 0 1 -1 0zm3 -12c1,-5 3,-11 4,-16 6,1 11,2 17,4 -3,3 -6,7 -8,10 -5,1 -9,1 -13,2zm7 -27c3,-10 7,-20 11,-31 9,7 18,14 26,22 -6,5 -11,10 -16,15 -6,-2 -13,-4 -21,-6zm16 -41c8,-19 17,-39 28,-58 11,19 21,39 29,58 -10,8 -20,16 -29,24 -9,-8 -18,-16 -28,-24zm35 -69c23,-38 48,-71 73,-96 10,34 15,76 16,120 -1,0 -1,1 -2,1 -20,12 -39,24 -56,37 -8,-20 -18,-40 -30,-60l-1 -2zm304 126c-26,26 -59,53 -97,76 38,24 71,50 97,77 57,-17 95,-45 95,-77 0,-31 -38,-59 -95,-76zm-108 83l-2 1c-20,12 -41,22 -60,30 13,17 25,36 37,56l1 2c44,-1 85,-6 120,-16 -25,-25 -58,-50 -96,-73zm-73 35c-12,5 -24,9 -35,13 3,12 5,24 7,37 20,2 42,4 64,4 -11,-19 -23,-37 -36,-54zm-45 16c-8,2 -15,4 -22,5 -1,7 -3,14 -5,22 10,2 21,4 32,5 -1,-11 -3,-22 -5,-32zm-33 8c-4,0 -9,1 -13,2 -2,3 -5,6 -8,10 5,1 11,3 17,4 1,-6 3,-11 4,-16zm-125 -45c0,0 0,-1 0,-1 0,0 0,-1 0,-1l-1 1 1 1zm127 33l-1 1 1 -1 1 -1 -1 1zm-74 -127l1 -1 1 1 -1 0 -1 0zm8 -9c4,-4 8,-8 12,-12 5,4 9,8 12,12 -4,2 -8,3 -12,5 -4,-2 -8,-3 -12,-5zm20 -19c8,-8 16,-15 25,-22 5,11 8,21 11,31 -7,2 -14,4 -21,6 -4,-5 -9,-10 -15,-15zm34 -29c17,-12 35,-24 54,-35 0,22 -2,44 -4,64 -13,2 -25,4 -37,7 -4,-12 -8,-24 -13,-36zm265 219c-35,10 -77,17 -122,18 22,40 37,79 46,115 58,14 105,8 120,-19 16,-27 -2,-70 -44,-114zm-135 18c0,0 -1,0 -2,0 -23,0 -46,-1 -67,-4 3,21 4,44 4,67l0 2c39,22 77,38 112,47 -9,-35 -25,-73 -47,-112zm-80 -5c-13,-2 -25,-4 -37,-7 -4,11 -8,23 -13,35 17,13 35,25 54,36 0,-22 -2,-44 -4,-64zm-48 -10c-7,-2 -14,-4 -21,-6 -4,6 -9,11 -15,16 8,7 16,14 25,21 5,-10 8,-21 11,-31zm-32 -9c-4,-2 -8,-3 -12,-5 -4,2 -8,3 -12,5 4,4 8,8 12,12 5,-4 9,-8 12,-12zm-85 -101c0,-1 0,-1 0,-1 0,-1 0,-1 0,-1l-1 1 1 1zm93 92l-1 0 1 0 1 -1 -1 1zm-1 -147l1 -1 1 1 -1 0 -1 0zm12 -4c5,-2 11,-3 17,-4 1,5 3,11 4,16 -4,-1 -9,-1 -13,-2 -2,-3 -5,-7 -8,-10zm27 -7c10,-2 21,-4 32,-6 -1,12 -3,22 -5,33 -8,-2 -15,-4 -22,-6 -1,-7 -3,-14 -5,-21zm164 315c-36,-9 -75,-24 -115,-46 -1,45 -8,87 -18,122 44,42 87,60 114,44 27,-15 33,-62 19,-120zm-126 -52c-1,-1 -1,-1 -2,-1 -20,-12 -39,-24 -56,-37 -8,19 -18,40 -30,60l-1 2c23,38 48,71 73,96 10,-35 15,-76 16,-120zm-67 -45c-10,-8 -20,-16 -29,-25 -9,9 -18,17 -28,25 8,19 17,38 28,58 11,-20 21,-39 29,-58zm-36 -32c-6,-5 -11,-10 -16,-16 -6,2 -13,4 -21,6 3,10 7,21 11,31 9,-7 18,-14 26,-21zm-23 -24c-3,-4 -6,-7 -8,-10 -5,-1 -9,-2 -13,-2 1,5 2,10 4,16 6,-1 11,-3 17,-4zm83 -132l1 0 1 1 -1 0 -1 -1zm13 3c5,1 10,2 16,4 -1,6 -3,11 -4,17 -4,-3 -7,-6 -10,-8 -1,-5 -2,-9 -2,-13zm11 362c-27,-26 -53,-59 -77,-97 -23,38 -50,71 -76,97 17,57 45,95 76,95 32,0 60,-38 77,-95zm-83 -108l-1 -2c-12,-20 -22,-41 -30,-60 -17,13 -36,25 -56,37l-2 1c0,44 6,85 15,120 26,-25 51,-58 74,-96zm-36 -73c-4,-12 -9,-24 -12,-35 -12,3 -24,5 -37,7 -3,20 -4,42 -4,64 19,-11 37,-23 53,-36zm-15 -45c-2,-8 -4,-15 -6,-22 -7,-1 -14,-3 -21,-5 -2,10 -4,21 -6,32 12,-1 22,-3 33,-5zm-8 -33c-1,-4 -1,-9 -2,-13 -3,-2 -7,-5 -10,-8 -2,5 -3,11 -4,17 5,1 11,3 16,4zm138 -72l1 1 0 1 0 -1 -1 -1zm-161 327c-11,-35 -17,-77 -18,-122 -40,22 -80,37 -115,46 -14,58 -9,105 19,120 27,16 70,-2 114,-44zm-18 -135c0,0 0,-1 0,-2 0,-23 1,-46 4,-67 -22,3 -44,4 -67,4l-3 0c-21,39 -37,77 -46,112 34,-9 73,-25 112,-47zm5 -80c2,-13 4,-25 7,-37 -12,-4 -24,-8 -36,-13 -12,17 -24,35 -35,54 22,0 44,-2 64,-4zm9 -48c2,-7 4,-14 6,-21 -5,-4 -10,-10 -15,-15 -8,8 -15,16 -22,25 11,5 21,8 31,11zm10 -32c2,-4 3,-8 5,-12 -2,-4 -3,-8 -5,-12 -4,4 -8,8 -12,12 4,5 8,9 12,12zm-148 210c9,-36 24,-75 46,-115 -45,-1 -87,-8 -123,-18 -41,44 -60,87 -44,114 16,27 62,33 121,19zm52 -126c0,-1 1,-1 1,-2 12,-20 24,-39 37,-56 -20,-8 -40,-18 -60,-30l-2 -1c-38,23 -71,48 -96,73 34,10 76,15 120,16zm45 -67c8,-10 16,-20 24,-29 -8,-9 -16,-18 -24,-28 -19,8 -39,17 -58,28 19,11 39,21 58,29zm32 -36c5,-6 10,-11 15,-16 -2,-6 -4,-14 -6,-21 -10,3 -20,7 -31,11 7,9 14,18 22,26zm-209 84c26,-27 59,-53 97,-77 -38,-23 -71,-50 -97,-76 -58,17 -95,45 -95,76 0,32 37,60 95,77zm108 -83l2 -1c20,-12 40,-22 60,-30 -13,-17 -25,-36 -37,-56l-1 -2c-44,0 -86,6 -120,15 25,26 58,51 96,74zm72 -36c12,-4 24,-9 36,-12 -3,-12 -5,-24 -7,-37 -20,-3 -42,-4 -64,-4 11,19 23,37 35,53zm-177 -46c36,-11 78,-17 123,-18 -22,-40 -37,-80 -46,-115 -59,-14 -105,-9 -121,19 -16,27 3,70 44,114zm135 -18c1,0 2,0 3,0 23,0 45,1 67,3 -3,-21 -4,-43 -4,-66l0 -3c-39,-21 -78,-37 -112,-46 9,34 25,73 46,112zm-49 -124c36,9 75,24 115,46 1,-45 7,-87 18,-123 -44,-41 -87,-60 -114,-44 -28,16 -33,62 -19,121z"/></g><text x="0" y="862" fill="#000000" font-size="5px" font-weight="bold" font-family="'Helvetica Neue', Helvetica, Arial-Unicode, Arial, Sans-serif">Created by buheicon</text><text x="0" y="867" fill="#000000" font-size="5px" font-weight="bold" font-family="'Helvetica Neue', Helvetica, Arial-Unicode, Arial, Sans-serif">from the Noun Project</text></svg>