<?xml version="1.0" encoding="UTF-8"?>
<svg width="133px" height="18px" viewBox="0 0 133 18" version="1.1" xmlns="http://www.w3.org/2000/svg" xmlns:xlink="http://www.w3.org/1999/xlink">
    <!-- Generator: Sketch 48.2 (47327) - http://www.bohemiancoding.com/sketch -->
    <title>7 DAY MAP</title>
    <desc>Created with Sketch.</desc>
    <defs></defs>
    <g id="Page-1" stroke="none" stroke-width="1" fill="none" fill-rule="evenodd" fill-opacity="0.983780571">
        <path d="M12.4,3.325 L6.075,18 L1.65,18 L8.05,3.825 L0.55,3.825 L0.55,0.15 L12.4,0.15 L12.4,3.325 Z M35.225,9.125 C35.225,10.858342 34.8541704,12.3958266 34.1125,13.7375 C33.3708296,15.0791734 32.3041736,16.1249962 30.9125,16.875 C29.5208264,17.6250038 27.8833427,18 26,18 L19.325,18 L19.325,0.325 L26,0.325 C27.9000095,0.325 29.5416598,0.691663 30.925,1.425 C32.3083403,2.158337 33.3708296,3.19166 34.1125,4.525 C34.8541704,5.85834 35.225,7.391658 35.225,9.125 Z M25.625,14.175 C27.291675,14.175 28.5874954,13.7333378 29.5125,12.85 C30.4375046,11.9666623 30.9,10.725008 30.9,9.125 C30.9,7.524992 30.4375046,6.28333775 29.5125,5.4 C28.5874954,4.51666225 27.291675,4.075 25.625,4.075 L23.6,4.075 L23.6,14.175 L25.625,14.175 Z M48.6,14.775 L41.975,14.775 L40.875,18 L36.375,18 L42.85,0.45 L47.775,0.45 L54.25,18 L49.7,18 L48.6,14.775 Z M47.5,11.525 L45.3,5.025 L43.075,11.525 L47.5,11.525 Z M71.175,0.325 L65.05,12.125 L65.05,18 L60.75,18 L60.75,12.125 L54.625,0.325 L59.525,0.325 L62.925,7.525 L66.325,0.325 L71.175,0.325 Z M97.7,0.45 L97.7,18 L93.425,18 L93.425,7.025 L89.625,18 L85.925,18 L82.1,7 L82.1,18 L77.825,18 L77.825,0.45 L83.05,0.45 L87.825,12.675 L92.5,0.45 L97.7,0.45 Z M111.6,14.775 L104.975,14.775 L103.875,18 L99.375,18 L105.85,0.45 L110.775,0.45 L117.25,18 L112.7,18 L111.6,14.775 Z M110.5,11.525 L108.3,5.025 L106.075,11.525 L110.5,11.525 Z M123.175,11.8 L123.175,18 L118.9,18 L118.9,0.325 L125.825,0.325 C127.92501,0.325 129.524995,0.845828125 130.625,1.8875 C131.725006,2.92917188 132.275,4.3333245 132.275,6.1 C132.275,7.2000055 132.029169,8.17916238 131.5375,9.0375 C131.045831,9.89583763 130.316671,10.5708309 129.35,11.0625 C128.383329,11.5541691 127.20834,11.8 125.825,11.8 L123.175,11.8 Z M125.35,8.375 C127.066675,8.375 127.925,7.61667425 127.925,6.1 C127.925,4.54999225 127.066675,3.775 125.35,3.775 L123.175,3.775 L123.175,8.375 L125.35,8.375 Z" id="7-DAY-MAP" fill="#000000"></path>
    </g>
</svg>