<?xml version="1.0" encoding="UTF-8"?>
<svg width="176px" height="18px" viewBox="0 0 176 18" version="1.1" xmlns="http://www.w3.org/2000/svg" xmlns:xlink="http://www.w3.org/1999/xlink">
    <!-- Generator: Sketch 48.2 (47327) - http://www.bohemiancoding.com/sketch -->
    <title>MAP MY WEEK</title>
    <desc>Created with Sketch.</desc>
    <defs></defs>
    <g id="Page-1" stroke="none" stroke-width="1" fill="none" fill-rule="evenodd" fill-opacity="0.983780571">
        <path d="M20.5125,0.45 L20.5125,18 L16.2375,18 L16.2375,7.025 L12.4375,18 L8.7375,18 L4.9125,7 L4.9125,18 L0.6375,18 L0.6375,0.45 L5.8625,0.45 L10.6375,12.675 L15.3125,0.45 L20.5125,0.45 Z M34.4125,14.775 L27.7875,14.775 L26.6875,18 L22.1875,18 L28.6625,0.45 L33.5875,0.45 L40.0625,18 L35.5125,18 L34.4125,14.775 Z M33.3125,11.525 L31.1125,5.025 L28.8875,11.525 L33.3125,11.525 Z M45.9875,11.8 L45.9875,18 L41.7125,18 L41.7125,0.325 L48.6375,0.325 C50.7375105,0.325 52.3374945,0.845828125 53.4375,1.8875 C54.5375055,2.92917188 55.0875,4.3333245 55.0875,6.1 C55.0875,7.2000055 54.8416691,8.17916238 54.35,9.0375 C53.8583309,9.89583763 53.1291715,10.5708309 52.1625,11.0625 C51.1958285,11.5541691 50.0208402,11.8 48.6375,11.8 L45.9875,11.8 Z M48.1625,8.375 C49.8791753,8.375 50.7375,7.61667425 50.7375,6.1 C50.7375,4.54999225 49.8791753,3.775 48.1625,3.775 L45.9875,3.775 L45.9875,8.375 L48.1625,8.375 Z M82.0625,0.45 L82.0625,18 L77.7875,18 L77.7875,7.025 L73.9875,18 L70.2875,18 L66.4625,7 L66.4625,18 L62.1875,18 L62.1875,0.45 L67.4125,0.45 L72.1875,12.675 L76.8625,0.45 L82.0625,0.45 Z M100.2875,0.325 L94.1625,12.125 L94.1625,18 L89.8625,18 L89.8625,12.125 L83.7375,0.325 L88.6375,0.325 L92.0375,7.525 L95.4375,0.325 L100.2875,0.325 Z M130.9625,0.325 L126.7375,18 L121.4375,18 L118.6125,6.175 L115.7625,18 L110.4625,18 L106.2375,0.325 L110.8875,0.325 L113.1625,13.125 L116.2625,0.325 L120.9375,0.325 L124.0375,13.125 L126.3375,0.325 L130.9625,0.325 Z M137.4875,3.725 L137.4875,7.425 L143.4625,7.425 L143.4625,10.65 L137.4875,10.65 L137.4875,14.575 L144.2125,14.575 L144.2125,18 L133.2125,18 L133.2125,0.325 L144.2125,0.325 L144.2125,3.725 L137.4875,3.725 Z M150.9125,3.725 L150.9125,7.425 L156.8875,7.425 L156.8875,10.65 L150.9125,10.65 L150.9125,14.575 L157.6375,14.575 L157.6375,18 L146.6375,18 L146.6375,0.325 L157.6375,0.325 L157.6375,3.725 L150.9125,3.725 Z M168.3875,8.975 L175.5125,18 L170.3375,18 L164.3375,10.075 L164.3375,18 L160.0625,18 L160.0625,0.325 L164.3375,0.325 L164.3375,8.1 L170.3875,0.325 L175.5125,0.325 L168.3875,8.975 Z" id="MAP-MY-WEEK" fill="#000000"></path>
    </g>
</svg>